<svg width="100" height="20" viewBox="0 0 100 20" fill="none" xmlns="http://www.w3.org/2000/svg">
<path d="M31.0026 17.0541H19.0318V3.31029H30.8852V6.54091H23.0029V8.42871H30.2829V11.7376H23.0029V13.8H31.0026V17.0541Z" fill="white"/>
<path d="M52.0994 3.31029V17.0515H48.1674V9.69332L45.3461 17.0515H40.9656L38.1417 9.69332V17.0515H34.2097V3.31029H39.5237L43.1637 12.5954L46.8063 3.31029H52.102H52.0994Z" fill="white"/>
<path d="M62.1407 12.8692H59.4159V17.0541H55.4448V3.31029H62.1616C65.9762 3.31029 68.0779 4.98427 68.0779 8.07931C68.0779 11.1743 65.9554 12.8666 62.1407 12.8666V12.8692ZM62.2189 6.54352H59.4159V9.6177H62.258C63.5044 9.6177 64.0285 9.22919 64.0285 8.07931C64.0285 6.92942 63.4627 6.54091 62.2189 6.54091V6.54352Z" fill="white"/>
<path d="M70.6644 3.31029H74.6356V11.1743C74.6356 11.9331 74.8702 12.5954 75.3161 13.1795C75.7646 13.7635 76.5416 14.0556 77.6133 14.0556C78.6849 14.0556 79.4828 13.7635 79.9287 13.1795C80.3772 12.5954 80.6092 11.9331 80.6092 11.1743V3.31029H84.5804V10.8823C84.5804 13.1013 83.9389 14.7361 82.6535 15.7869C81.3889 16.8377 79.694 17.3644 77.6133 17.3644C75.5325 17.3644 73.8377 16.8377 72.5731 15.7869C71.3085 14.7361 70.6644 13.1013 70.6644 10.8823V3.31029Z" fill="white"/>
<path d="M88.1422 12.9266C88.7445 13.2186 89.485 13.4924 90.3793 13.7244C91.2945 13.9382 92.1498 14.0556 92.9685 14.0556C94.546 14.0556 95.3231 13.8027 95.3231 13.2968C95.3231 12.731 94.4861 12.4598 92.9477 12.1495C92.7339 12.1287 92.4992 12.0713 92.2072 11.9931C88.9765 11.2526 87.1644 10.3582 87.107 7.35965C87.107 5.89948 87.6911 4.80957 88.8774 4.08991C90.0638 3.37026 91.6022 3 93.49 3C95.3778 3 97.6567 3.48759 99.2316 4.32458L97.967 7.22407C96.546 6.65825 94.7155 6.32971 93.3935 6.32971C91.9334 6.32971 91.1172 6.64 91.1172 7.18756C91.1172 7.73512 91.8969 7.98544 93.3179 8.23836L93.8837 8.3557C95.6151 8.72596 96.9579 9.2318 97.9123 9.91234C98.8666 10.5746 99.3516 11.5681 99.3516 12.89C99.3516 14.3893 98.7492 15.5184 97.542 16.2563C96.3347 16.9968 94.7598 17.3644 92.8121 17.3644C91.7613 17.3644 90.6896 17.2288 89.5997 16.9368C88.5098 16.6448 87.5763 16.2745 86.8176 15.8078L88.1422 12.9266Z" fill="white"/>
<path d="M0 3.31029H1.75742V6.52005H0V3.31029ZM2.69089 6.52005H5.90065V3.31029H2.69089V6.52005ZM7.22524 17.0515H11.1964V6.52266H13.4727V3.31029H7.22524V17.0515ZM14.4061 3.31029V6.52005H15.7307V3.31029H14.4061Z" fill="white"/>
</svg>
